/* XPM */
static char *result[] = {
/* columns rows colors chars-per-pixel */
"32 32 16 1 ",
"  c #269605",
". c #2A9706",
"X c #279A05",
"o c #2C9C07",
"O c #2D9708",
"+ c #2F9B08",
"@ c #309707",
"# c #309E07",
"$ c #339D08",
"% c #399F0A",
"& c #2DA106",
"* c #31A207",
"= c #34A208",
"- c #39A309",
"; c #36A908",
": c #3BA909",
/* pixels */
"#+oooo#;*O=*$o O#-ooOo&&+*;+$*Oo",
".o=*&*OO$**o *;o.=##=o&%oooO*#=+",
";;o+==.$==OO**=&$##=;o%#&##;*o==",
"=@o*#o*$=&o=*$@=;;-$$#:&O$o#+= #",
".#oo+.*oo*o*=-$XO=;@#$*-+##OX$$o",
"o**o#-#o$$=*.$*oo#*+$$oo#;o*##=#",
"&+;=#$+=*oO$o*==*oo+#*oO$$&#o;#*",
"oo$$=o;oXo&o$=*o@#o*oo*-oo$o&&-*",
"o.**-*;=@-O&ooo -**-@o+**O#ooo#-",
"Xooo$o=$*=*o*oOo--Oo;$**=X#$=o@$",
".*o*oOO$oo-*O*o$=+#&o o-+oo#%-oo",
"*##==;&o$o$=&.o*$%=##o.#ooo*&-;;",
"$=*@o=*o-$Xo$&$O*;%.;;&&&oo&#o++",
"$=O .O@:*oo.&o$ooO;o@*+o;o.O$+o@",
"$++&&oo$$$.&*$$;+= *$@=$@;o#o--#",
"-#&;&$==o=.o$.X-oo+$*#%+##&oO#oo",
"oo##o$**#**;&oo*=O;*o=#&o.&#$o=$",
"##o$-*;&.$;**O== &;O$*#&o#=#$==*",
"#O##--.o*o*$$o-oO$+.-o*oo;##$=+#",
"o;#o=o#Oo&@=oo$$&#;-$#-$oo&o==oo",
"O@*;#+#*o**o*##$+O@==@$-#.o;=#*#",
"o*o *=+$oo=o*&&$+&;o=;.;% +*#&%.",
"*+#*=.*o.+-=O.+$=*O#oo$o**; o#oo",
"##=*$#&&o#$#*+.;*@o-$##oO%&&o#X#",
"+*o+@&*=*#+o-#*$+o**%-o*&o&%o$o+",
";Oo$*O+*oo&oOo*O&o# o-*ooo$$&$+;",
"#O&#o&.#=+#*o+#&-@*-+*#+o;& @-&%",
"*#+#&*oo=#+#&*+o=*o+&o.*-o;==*+o",
"o#+*oo+X=#*@#o&=oo+#oO&ooO#;&*$$",
"#&=.o&oo+X-=*&*o-;Oo;&##&&oo#-o$",
"=+o=#o*+OX#o#=#Ooo&o#O*;&% o+O$&",
"*oX#-++o;&O+#$*O=O=o+%o&O$#*&&;$"
};
