/* XPM */
static char *result[] = {
/* columns rows colors chars-per-pixel */
"32 32 198 2 ",
"   c #0B1426",
".  c #141F2B",
"X  c #1A1C2A",
"o  c #141A37",
"O  c #1C1930",
"+  c #0A2C24",
"@  c #18262F",
"#  c #172A36",
"$  c #15203F",
"%  c #1D263F",
"&  c #1C2839",
"*  c #222D3A",
"=  c #223039",
"-  c #32373D",
";  c #0E1540",
":  c #041C42",
">  c #0B2B4B",
",  c #1D2344",
"<  c #192D4C",
"1  c #152747",
"2  c #0D324F",
"3  c #0D3A4E",
"4  c #13314C",
"5  c #1B314C",
"6  c #1B3642",
"7  c #152D53",
"8  c #0A3C59",
"9  c #143352",
"0  c #1B3554",
"q  c #1C3B55",
"w  c #133E5D",
"e  c #1D3D5B",
"r  c #292B48",
"t  c #2A3B44",
"y  c #28344B",
"u  c #33384A",
"i  c #282F55",
"p  c #203051",
"a  c #2A3D54",
"s  c #29315C",
"d  c #243D5D",
"f  c #2C3D5D",
"g  c #263A53",
"h  c #323B52",
"j  c #3A3D5C",
"k  c #0C3E60",
"l  c #103D62",
"z  c #213761",
"x  c #253C62",
"c  c #2B3E6B",
"v  c #363F64",
"b  c #13435D",
"n  c #1D425C",
"m  c #18485F",
"M  c #144453",
"N  c #23434E",
"B  c #254255",
"V  c #2B4353",
"C  c #25435E",
"Z  c #2B445D",
"A  c #23485A",
"S  c #2B495E",
"D  c #3C4755",
"F  c #334A56",
"G  c #3C4D57",
"H  c #34435D",
"J  c #334A5E",
"K  c #3D485E",
"L  c #3C5059",
"P  c #35525A",
"I  c #0B4167",
"U  c #144364",
"Y  c #1C4462",
"T  c #114A64",
"R  c #1D4B64",
"E  c #144D6D",
"W  c #1D4D6B",
"Q  c #14446A",
"!  c #144D71",
"~  c #135571",
"^  c #1B5374",
"/  c #1F5D75",
"(  c #1C5378",
")  c #244562",
"_  c #2A4462",
"`  c #244A64",
"'  c #2C4A64",
"]  c #284668",
"[  c #254C69",
"{  c #2B4C6A",
"}  c #334563",
"|  c #334B65",
" . c #3A4D65",
".. c #33476B",
"X. c #354E6C",
"o. c #3B4B6A",
"O. c #3C456A",
"+. c #295265",
"@. c #25526E",
"#. c #2C526C",
"$. c #23586F",
"%. c #295A6E",
"&. c #355167",
"*. c #3A5266",
"=. c #34536C",
"-. c #3B536C",
";. c #34586E",
":. c #3C5A6C",
">. c #234F71",
",. c #2C4971",
"<. c #3C4773",
"1. c #334E74",
"2. c #3B4D71",
"3. c #245471",
"4. c #2C5472",
"5. c #225D75",
"6. c #2D5A74",
"7. c #2A567C",
"8. c #255D7A",
"9. c #2B5B7C",
"0. c #25557A",
"q. c #345572",
"w. c #3A5573",
"e. c #335B74",
"r. c #3A5B73",
"t. c #36557B",
"y. c #335C7B",
"u. c #3C5D7B",
"i. c #3B5579",
"p. c #25617F",
"a. c #2B627E",
"s. c #34627C",
"d. c #3C617C",
"f. c #3C687E",
"g. c #42404E",
"h. c #445666",
"j. c #4A5667",
"k. c #475866",
"l. c #485966",
"z. c #42546A",
"x. c #49566B",
"c. c #44596B",
"v. c #4A5969",
"b. c #435472",
"n. c #445C72",
"m. c #4A5B75",
"M. c #445B7A",
"N. c #4C5A7F",
"B. c #406276",
"V. c #43697F",
"C. c #526C79",
"Z. c #275D84",
"A. c #345F85",
"S. c #3A5C81",
"D. c #276082",
"F. c #2E6282",
"G. c #2D678A",
"H. c #2E6889",
"J. c #356383",
"K. c #3A6484",
"L. c #346985",
"P. c #3D6985",
"I. c #3C648B",
"U. c #356B89",
"Y. c #3B698C",
"T. c #3C738E",
"R. c #2D7192",
"E. c #3A7291",
"W. c #3F7994",
"Q. c #405C83",
"!. c #4B6583",
"~. c #436B84",
"^. c #496D86",
"/. c #42668A",
"(. c #436C8A",
"). c #4D6E8F",
"_. c #446581",
"`. c #506886",
"'. c #586981",
"]. c #546C88",
"[. c #44728E",
"{. c #4E718B",
"}. c #55758D",
"|. c #406F96",
" X c #486C94",
".X c #427391",
"XX c #4C7393",
"oX c #4B7A94",
"OX c #4A759A",
"+X c #407A99",
"@X c #547F96",
"#X c #577F9C",
"$X c #4F7DA0",
"%X c #527EA2",
"&X c #458098",
"*X c #5A809E",
"=X c #5383A3",
"-X c #648BA7",
/* pixels */
"6  Xu.M..._ q.y.`.u.e.e.q.D X 4.}.!.u.u.M.y.A.y.X.e.L.e.b.I.K.V ",
"(.XX9..XF.J.9.J.@X^.S.S.J.T.u.=X9.{.f.Y.oXZ.~ s.OXJ.r.E.E.8.L.I.",
"K.$._ Q { ' o.O.l ) ' | [ w H K.U [ #.` R =.X.{ Y [ #.[ ' [ 3.B ",
",.L.R 4.=.#.X.=.=.;.#.=.#.>.f (.^ 4.6.q.q.q.q.#.=.r.6.-.-.4.P.h ",
"x L.W =.=.=.=.=.=.=.w.X.X.u.i t.a.&.;.q.4.4.#.;.;.r.;.r.r.u.s.7 ",
"q.D.+.=.X.=.-.=.-.=.=.=.X.w., 1.p.+.#.#.4.#.%.#.;.=.;.r.n.r.u.0 ",
"/.Z.{ 3.@.%.3.@.3.4.4.4.@.6.H U.^ q.e.e.3.3.,.w.6.@.4.y.u.0.d.} ",
"t z.U w ) S ` d ) d _ x ' Z   3 C V q q d Z ) &.T 8 e d a n ` # ",
"t b.=.2.M.{ o Q.'.j 1.b.=.q.L F -.` ' z.} X.Z . r.m...,. .a r.P ",
"(.u.M._.J._.u.%Xi.e.J.y.8.W.E.d.K.P. XP.y.a.u.h.OXt._.~.u.!./.K.",
"| &.&.&...} ^.0.n W R +.#.m R +.' | ' [ W [ d H y.d | | | ' _ | ",
"&.=.-.&.w._ e.y.{ @.@.#.;.q.;.#.{ =.w.q.q.6.q 4 (.} 2.=.X.&.&.&.",
"-.-.z.&.q._ w.^.` #.#.&.;.=.#.=.{ &.b.w.#.3.' V y.o. .X.-.*. . .",
"q.=.=.=.^ { i.U.! 6.y.4.6./ 5.7.8.y.y.3.E E 6.C.A.E @.@.3.>.@.4.",
"Y 4.[ n @.4 < 4.e < q Z n l d V } x m A ' S 1 * q.b n b Y ) R w ",
"z.4 > *.=.V B -.} H Z f  .O.j u o j <.z.m.o.Z N <.b.z.z.-.z.z. .",
"U.y {.XXt./.].e..X*XY.H.L.U.R.4.d.$XZ.9.U..XU.H.U.Y.F.F.F.9.J.F.",
"U g.^.l } { } J ` [ | ' ' n W 5 X.Y.k ) _ ' ' ' ' ' ' ' ' ' ` C ",
"X.7 q.#.w.;.#.%.#.*.:.-.z.&.y.5 x (.` w.b.b.=. .-.&.=.=.;.=.=.#.",
"4.$ A.r. .-.:.*.F *.-.-.&.=.r.9 { 9.X.-.:.:.=.=.-.#.4.;.q.=.;.=.",
"W a {.=.=.=.=.=.=.=.&.=.&.=.w.C @.~.' 1.-.q.w.w.w.-.=.-.-.-.r.=.",
"{ q.G.e q.w.q.W @.#.4.4.#.{ q.C 4..XY q.q.q.{ q.=.{ #.#.=.q.=.=.",
"g 2 L.' ' } x ' ' I ' } Y ' -.: 0 ;.S C C ` C o.q.C _ ' ' } ) Y ",
"B + = _ r.,.z _ z.O.O 0 w.} C 7 g h. .S &.:. .@ & u.o. .f } b.o.",
"K./.u.V.K.+XoXK.A.P.q.=XE.a.K.~.(.Y.K.oX[.J.E.M +.=Xs.E.-XE.K._.",
"G -.%. .} [ +.' ' ` y.(.8 ) ' } ' _ ' ) b _ >.A :.9.` ` { [ S  .",
"x.j.j.z.:.z.*.&.w.z.' u._ q.X.q.-.X.X.{ { ' s.% u ~.| z.=.-.c.h.",
"v.h.j.k.h.h.*.-. .-.B.y.' 1.o.-.-.X.=.{ { { J.% h (.*.m.-.c.v.j.",
"k.k.k.h.j.h.z.&.=._ &.s.' -.-.-. .-. .X. .&.y.r D f.*.-.:.h.h.j.",
"z.k.c.h.z.-.&.{ #._ x F.R +.&.=.;.{ #.X.X.X.%.d c s. .&.c.z.*.z.",
"=.&.=.c.-.' -.w.^ { { P.E 8.6.^ r.y.7.e.y.4.9.` =.Z.` =.;.-.n.-.",
"q.4.r.[ #.q.X.S q.9 1 4.) d C &.d s ..} f _ u.@ - /.4.3.#.=.] { "
};
