/* XPM */
static char *result[] = {
/* columns rows colors chars-per-pixel */
"32 32 149 2 ",
"   c black",
".  c #0F0E05",
"X  c #101012",
"o  c #25321E",
"O  c #272825",
"+  c #2D2B26",
"@  c #33342B",
"#  c #3A3B34",
"$  c #364F2E",
"%  c #315627",
"&  c #395B2D",
"*  c #397726",
"=  c #44443D",
"-  c #48483D",
";  c #43603A",
":  c #474844",
">  c #4C4B4A",
",  c #4C5547",
"<  c #535347",
"1  c #515348",
"2  c #515052",
"3  c #5D5D52",
"4  c #5C5C5B",
"5  c #4D6445",
"6  c #506147",
"7  c #526E45",
"8  c #527C44",
"9  c #5D764F",
"0  c #587C48",
"q  c #5C6950",
"w  c #636353",
"e  c #626459",
"r  c #637A56",
"t  c #61745B",
"y  c #687F5B",
"u  c #6A6C65",
"i  c #65656E",
"p  c #686D68",
"a  c #6E7D65",
"s  c #737365",
"d  c #74736C",
"f  c #7B7C6E",
"g  c #6B6C70",
"h  c #727270",
"j  c #7D7D74",
"k  c #2C8C0D",
"l  c #269706",
"z  c #2A9606",
"x  c #279A05",
"c  c #2C9C07",
"v  c #2F920E",
"b  c #2F9B08",
"n  c #309E07",
"m  c #33940F",
"M  c #329D08",
"N  c #328A14",
"B  c #358B1B",
"V  c #3F9F1B",
"C  c #2DA106",
"Z  c #31A207",
"A  c #34A208",
"S  c #39A309",
"D  c #36A908",
"F  c #3BA909",
"G  c #3CA219",
"H  c #42A41C",
"J  c #4CAB1F",
"K  c #41812A",
"L  c #459B2A",
"P  c #4D9B2E",
"I  c #468B30",
"U  c #4B8439",
"Y  c #4C9233",
"T  c #4F9F33",
"R  c #529B36",
"E  c #56963C",
"W  c #549C3A",
"Q  c #43A025",
"!  c #49A527",
"~  c #4CA52A",
"^  c #53A931",
"/  c #5AA13F",
"(  c #54A838",
")  c #538840",
"_  c #588D46",
"`  c #5E8D4C",
"'  c #61954A",
"]  c #6C865E",
"[  c #58A440",
"{  c #77896F",
"}  c #7B8A73",
"|  c #82816F",
" . c #828274",
".. c #82827D",
"X. c #88877C",
"o. c #8B8A7A",
"O. c #829073",
"+. c #93907E",
"@. c #969684",
"#. c #9D9985",
"$. c #95948F",
"%. c #9B9B8D",
"&. c #9B9B92",
"*. c #ABAA91",
"=. c #A3A39A",
"-. c #A4AE9E",
";. c #AAAA9D",
":. c #B3B29F",
">. c #B9B59D",
",. c #B2B2A5",
"<. c #BABBA3",
"1. c #B4B4AD",
"2. c #BCBCAB",
"3. c #B4B1B8",
"4. c #C1BFAB",
"5. c #C4C4AC",
"6. c #CAC9B5",
"7. c #C8C7BF",
"8. c #CDCCB8",
"9. c #D3D3BE",
"0. c #D7D9BB",
"q. c #DBDABC",
"w. c #D3D4C4",
"e. c #DCDBC4",
"r. c #D3D4CB",
"t. c #E1DFC1",
"y. c #E2E0C5",
"u. c #E8E6C4",
"i. c #E7E5CA",
"p. c #E8E7C8",
"a. c #EAE9CB",
"s. c #E6E6D2",
"d. c #EDEBD2",
"f. c #F2EFD2",
"g. c #F0EFDB",
"h. c #F5F3D5",
"j. c #FAF6D2",
"k. c #FDFAD7",
"l. c #F3F2DB",
"z. c #F8F6DB",
"x. c #FEFBDC",
"c. c #EEEDE1",
"v. c #F3F1E0",
"b. c #F8F6E7",
"n. c #FEFEE5",
"m. c #FFFFEB",
"M. c #EBEBF0",
"N. c #FFFFF3",
"B. c #FFFFFE",
/* pixels */
"n b c c c c n D Z b A ( ) b l z M J ( z z n Z Z c Z A b A n z c ",
"z c A Z C Z b z M Z A } O T D c z E X / A c c n c c b z Z Z A n ",
"D D z b A A b M n A [ X.s ; ~ I Q & %.O.A A M M Z M n D Z c A A ",
"A M c Z n c c M D n R o.,.4 ;.2...e n.-.M M F D b M c n b Z z n ",
"z n c c M z n c b Z * &.n.c.B.N.B.z.n.f G M Z A b Z M z x M M n ",
"z Z D z n S c c n R 4 N.n.n.j.z.x.n.n.&.` M z c Z S c Z n n A n ",
"C c D A n n b A D 5 r.m.g.B.B.n.B.B.n.N.p H c b M n Z c c D n Z ",
"c n n A M b D Z L d B.i.: e 2.t.%.u 3 m.;.U A A c c n c C C S Z ",
"c z Z Z S Z D A _ ;.B.5.g i # t.= i > q.g.7 n A Z z c c c c n A ",
"x c c c n c M A t t.B.1.# 4 s X.$.h 3 g.N.{ Z Z A x n M S c M M ",
"z Z c Z n z c M u B.9.5.2.d +   e #.:.2.B.j N A b c c n S A b c ",
"Z n n A M D c c s N.d w 4.t.<.@.a.>.@.1 s.,.B c c c c A Z S A D ",
"M D Z M c A Z n ..w.s 6.@.} @.=.;.| *.w 6.e.Y c Z c c D M b z b ",
"M n z z z z c F j m.e s $.f 3.M.=.| d  .N.8.; H H z x z n M c M ",
"M b b c c n c M w B.w.2.B.7.2 p $.N.n.b.N.t., P T A c c c M M n ",
"S n Z D C n A A < m.N.N.x.n.w. .4.N.x.n.x.x.9 m m n Z c b n b Z ",
"c c n n c n n Z - N.x.x.x.x.m.B.m.k.x.n.n.n.] m v z c Z A c A M ",
"n n c M F A D Z 1 n.x.x.x.x.x.x.x.x.x.j.z.m.r v k n A n M A A n ",
"n c n n S M z z t f.n.x.x.x.x.x.x.x.n.0.6.d.6 N N D c n M A c n ",
"c A n c A n M c y q.h.n.x.x.x.x.x.x.m.8.6.*.7 V G c c n A A c c ",
"b M n Z n c n A 8 +.n.x.x.x.x.x.x.x.n.l.f @ ' F n z c D S c Z n ",
"c Z c c Z A c M Q @ q.n.u.h.x.x.x.z.n.8.7 o / D M l b Z c Z M z ",
"A z n Z A z Z c z 8 + e.d.y.n.x.n.a.N.j K L ! c A D Z x Z c n n ",
"n n A Z A n C c Z n %  .m.q.n.x.n.v.i.a Z c n c b M C C c b c n ",
"c Z b z M C Z A Z c M q p.i.m.a.e.v.&.W M A z Z n c Z M n n c b ",
"Z b n M n z b A b c Z 8 &.e.z.N.d 3 { z b F Z Z b c M n Z M b S ",
"M z Z n c C z n A b n ^ O = b.e.o # ( S M A n z b D C z M S Z n ",
"Z Z b Z Z Z c c A n b b W $ <.f Y H c b C c l Z Z c D Z A Z n c ",
"c n c Z c b z x A n Z M b ~ . 0 Z c b Z c x Z b c b c D c Z M M ",
"n c S z c C c Z b x S A Z Z _ ~ A D c c D Z M M c Z c c n S c Z ",
"A b c Z A c C z b x c Z Z M A z b c c n M z Z A C n l c z b M c ",
"Z c c c S b c c Z Z c z M M Z z Z b Z c M M M Z b Z Z c Z D S M "
};
