/* XPM */
static char *result[] = {
/* columns rows colors chars-per-pixel */
"32 32 198 2 ",
"   c #010101",
".  c #0B0403",
"X  c #040C01",
"o  c #0D0A04",
"O  c #080708",
"+  c #0B0B0A",
"@  c #120501",
"#  c #180000",
"$  c #120A05",
"%  c #1A0B05",
"&  c #130C0B",
"*  c #1A0E0B",
"=  c #0E100F",
"-  c #1B1107",
";  c #1D120C",
":  c #120D10",
">  c #171613",
",  c #1C1A16",
"<  c #1D1D1C",
"1  c #2E0700",
"2  c #210E06",
"3  c #23140D",
"4  c #29160B",
"5  c #35170B",
"6  c #271512",
"7  c #251A11",
"8  c #2C1A12",
"9  c #201E1A",
"0  c #341D14",
"q  c #102A06",
"w  c #133607",
"e  c #1A2517",
"r  c #192618",
"t  c #1C231D",
"y  c #1E3819",
"u  c #27221D",
"i  c #372115",
"p  c #392116",
"a  c #32261D",
"s  c #3C241B",
"d  c #3E281C",
"f  c #233D13",
"g  c #1F2020",
"h  c #232423",
"j  c #262822",
"k  c #2C2C24",
"l  c #2B2D29",
"z  c #332A25",
"x  c #3A2B21",
"c  c #2A3926",
"v  c #35322D",
"b  c #343B31",
"n  c #3C3932",
"m  c #3E3F3E",
"M  c #432416",
"N  c #412419",
"B  c #442A1D",
"V  c #4B2B1E",
"C  c #532A14",
"Z  c #5C2D1C",
"A  c #65331C",
"S  c #4D2C22",
"D  c #522D23",
"F  c #4C3225",
"G  c #41332C",
"H  c #533222",
"J  c #5B3425",
"K  c #56372B",
"L  c #5E3A2A",
"P  c #4C3D34",
"I  c #573E37",
"U  c #663623",
"Y  c #633B25",
"T  c #643B2B",
"R  c #6A3E2B",
"E  c #1A4707",
"W  c #164B05",
"Q  c #194E05",
"!  c #175303",
"~  c #1B5204",
"^  c #20570C",
"/  c #254A19",
"(  c #245E15",
")  c #2B591B",
"_  c #297A07",
"`  c #296814",
"'  c #2D6318",
"]  c #30641D",
"[  c #325D23",
"{  c #365A2B",
"}  c #3F5E36",
"|  c #366D22",
" . c #396A26",
".. c #3A7426",
"X. c #3B7C24",
"o. c #3D7329",
"O. c #5B453B",
"+. c #65412E",
"@. c #6B402C",
"#. c #77432E",
"$. c #7A442F",
"%. c #6C4332",
"&. c #62463B",
"*. c #734633",
"=. c #7C4631",
"-. c #764833",
";. c #7B4A34",
":. c #7F4E39",
">. c #417D2E",
",. c #446536",
"<. c #4A7B37",
"1. c #414241",
"2. c #4C4642",
"3. c #4C4B4A",
"4. c #504A47",
"5. c #4C5D47",
"6. c #56514A",
"7. c #59554E",
"8. c #5F5652",
"9. c #614E48",
"0. c #655751",
"q. c #536A48",
"w. c #6A645D",
"e. c #756865",
"r. c #677B60",
"t. c #76726E",
"y. c #834C36",
"u. c #845747",
"i. c #886759",
"p. c #936656",
"a. c #937366",
"s. c #847D76",
"d. c #917F72",
"f. c #2B8708",
"g. c #2E8C0B",
"h. c #269505",
"j. c #2A9706",
"k. c #279A05",
"l. c #2D9C07",
"z. c #2D930C",
"x. c #2E9B08",
"c. c #309E07",
"v. c #31960B",
"b. c #329D08",
"n. c #328215",
"m. c #35871A",
"M. c #378819",
"N. c #339411",
"B. c #3B9417",
"V. c #359C12",
"C. c #3A981A",
"Z. c #2DA106",
"A. c #31A207",
"S. c #34A208",
"D. c #39A309",
"F. c #36A908",
"G. c #3DA413",
"H. c #42A21C",
"J. c #438E26",
"K. c #469B26",
"L. c #48982B",
"P. c #4A8435",
"I. c #4D9933",
"U. c #529C34",
"Y. c #56983C",
"T. c #588F41",
"R. c #5A9445",
"E. c #5E9850",
"W. c #678A5C",
"Q. c #679E50",
"!. c #78AC65",
"~. c #89847D",
"^. c #A68776",
"/. c #AA8C7C",
"(. c #B88F7B",
"). c #86B175",
"_. c #92CB7D",
"`. c #8C8681",
"'. c #93918D",
"]. c #959691",
"[. c #9B9892",
"{. c #A89487",
"}. c #B89C89",
"|. c #93AF89",
" X c #98B78E",
".X c #BDAE9D",
"XX c #ABACA6",
"oX c #B7B0AC",
"OX c #BAB7B4",
"+X c #B5DCA4",
"@X c #D7C9BD",
"#X c #D4CDC3",
"$X c #D0D3CB",
"%X c #DEDCD7",
"&X c #E7E0DB",
"*X c #F6EDE3",
"=X c #FFF9EE",
"-X c #FFFBF4",
/* pixels */
"c.x.c.l.l.l.c.A.S.x.S.Z.l.c.h.j.c.D.l.l.j.l.Z.Z.c.S.S.k.D.S.j.l.",
"j.l.S.S.Z.Z.b.x.b.S.Z.x.j.S.F.l.j.S.c.c.S.l.X.e q 5.Y.l.c.A.S.l.",
"F.A.l.x.S.S.j.b.c.S.j.x.Z.Z.D.x.b.c.c.S.S.n.O = k   b H.A.l.S.S.",
"S.b.l.A.c.l.c.c.F.l.x.A.F.x.c.c.F.F.D.b.x.w ` U.b   t v.l.S.h.c.",
"j.l.l.l.b.j.A.j.l.F.j.c.S.D.l.k.j.S.F.c.b.w q.+Xt., , f.h.x.c.c.",
"l.S.A.j.c.D.Z.l.l.b.S.S.x.b.A.l.c.c.S.l.S.!.l %X%X+   X , q H.c.",
"Z.l.F.S.c.c.x.S.F.l.x.A.j.A.D.F.c.x.l.l.c._.h v ].OX[.: '.s.[ K.",
"l.c.c.D.b.l.F.c.j.l.Z.j.x.D.A.j.b.c.x.l.l.R.  j h -X=X4.m m , ,.",
"l.j.A.A.b.S.F.S.c.b.c.l.x.l.l.h.D.A.A.n.W.k [.XX> ~.s.z     g ,.",
"k.l.l.j.c.x.D.S.c.S.S.c.c.x.x.k.M.[ X :     $X#X7.  9 9   +  .B.",
"j.A.Z.S.l.k.x.b.c.l._  .E.` Q r   z W.{.d X v G 9 ) >.|  .T.v.c.",
"A.c.l.S.D.F.k.x.b.w     o 2 ;   O.(.}.i.+.7 & @ / l.l.c.A.D.F.F.",
"b.F.S.x.l.S.c.c.f , 2 C A =.&.8 3 Y A Z R y.s   ..l.l.Z.c.l.x.x.",
"b.c.j.k.k.j.x./ 3.s.1 $.^.{.{.9.  0 y.R -.Y $   U.l.j.j.v.c.l.c.",
"b.x.x.l.l.c.,.  #X&.. ].@X.X{.S . o N y.-.J . b c.F.j.Z.l.b.b.c.",
"D.c.S.F.c.L.  ~.{.. t.XXu.A L S V * . H =.R . ( c.c.S.c.x.c.c.c.",
"l.l.c.c.x.,.  }.Z 6 W.8.Z A Y -.-.x &   B -.6 ! l.j.Z.c.b.l.S.b.",
"c.x.x.b.H.  z a.U 0 h * J -.R R T *.D   . R 0 ( l.A.S.c.b.S.S.A.",
"S.j.c.b.R.  e.6.i.I   $ V #.R @.T -.=.6 7 p & ^ x.F.c.c.b.S.x.c.",
"l.S.c.l.Q @ `.O.a.u.0 . 7 J =.%.T J Y R 3   * ~ k.l.Z.l.S.b.Z.l.",
"l.j.c.F.Q $ w.d p.p.M     N :.%.T s D y.V 8   ' b.x.l.F.S.c.A.c.",
"l.F.x.j.~ n 6.2 T u.T 0 - % B %.%.H T ;.V * . 1.H.h.x.A.c.Z.b.j.",
"S.j.c.Z.~ 7.K # 0 R R S & $ . Y :.T %.i . B $ y S.S.A.k.l.c.c.c.",
"c.c.S.S.E w./.5   0 R S d 4   8 F K Y S d 7   ~ x.c.Z.Z.l.b.k.c.",
"x.S.x.x.P.} &Xw.    J y.@.+     & -.@.; o %   J.l.l.l.b.c.c.l.x.",
"S.k.c.F.H.  oX*Xn   $ @ 8 ;   . + 6 & + S . { A.l.c.b.c.A.b.x.D.",
"b.l.S.K.C.m.u @Xd.P g < o 6 i 3 .     4 @   X.j.x.G.L.k.v.D.A.S.",
"L.] ' Y.P./ O 0.{.F 3.3.2.a ; .       h r / ) X.S.K.Q.G.S.A.c.l.",
"C.n.m.U. .{ v           &           + 3.) z.U.R.S.j.c.A.Z.A.c.c.",
"l.Z.S.L.z.F.I.` y g X         + c <.N.l.V.n.M.v.x.A.l.A.c.D.l.c.",
"S.x.j.S.b.Z.A.l.V.x.z.o.~ E W W W |.o.N.).3.C.S.Z.b.h.l.x.l.b.A.",
"A.l.k.A.D.j.x.A.A.A.l.N.g.g.f.j._  X{ m.).r.x.A.x.S.c.c.A.A.D.c."
};
