/* XPM */
static char *result[] = {
/* columns rows colors chars-per-pixel */
"32 32 200 2 ",
"   c #060000",
".  c #0D0500",
"X  c #03020C",
"o  c #09040B",
"O  c #0D0D0F",
"+  c #130B02",
"@  c #140709",
"#  c #1C1307",
"$  c #15100B",
"%  c #080711",
"&  c #0E0D14",
"*  c #0E0C1C",
"=  c #100F17",
"-  c #141314",
";  c #14131A",
":  c #18171B",
">  c #1B1A1C",
",  c #2C1B03",
"<  c #231808",
"1  c #321F04",
"2  c #241B11",
"3  c #261E1B",
"4  c #19240D",
"5  c #1F3917",
"6  c #2E210C",
"7  c #38260D",
"8  c #3B280C",
"9  c #2A2116",
"0  c #25221C",
"q  c #2B251C",
"w  c #3B2B12",
"e  c #352919",
"r  c #2B3A1F",
"t  c #3E341C",
"y  c #161523",
"u  c #1D1B24",
"i  c #1F1E28",
"p  c #201F27",
"a  c #211E2A",
"s  c #242522",
"d  c #292621",
"f  c #272A25",
"g  c #24232B",
"h  c #2B2A2A",
"j  c #2B332B",
"k  c #393A26",
"l  c #32342D",
"z  c #262432",
"x  c #292532",
"c  c #2D2A36",
"v  c #2C2939",
"b  c #2C3531",
"n  c #343633",
"m  c #323C33",
"M  c #3B3936",
"N  c #36333A",
"B  c #3D3C3B",
"V  c #433217",
"C  c #4A3413",
"Z  c #44331B",
"A  c #4A3719",
"S  c #4C391B",
"D  c #543F1E",
"F  c #285219",
"G  c #2F6D12",
"H  c #2C4625",
"J  c #31432C",
"K  c #32492A",
"L  c #3A582C",
"P  c #2F4135",
"I  c #364336",
"U  c #394337",
"Y  c #3D4C33",
"T  c #3D453B",
"R  c #3E5B31",
"E  c #3C662C",
"W  c #3E782A",
"Q  c #3F6533",
"!  c #54442A",
"~  c #404C31",
"^  c #43423C",
"/  c #434C3D",
"(  c #50493A",
")  c #44513C",
"_  c #465C3D",
"`  c #4B5C3B",
"'  c #585E3B",
"]  c #426633",
"[  c #436739",
"{  c #476D38",
"}  c #4A6D3E",
"|  c #447D32",
" . c #477439",
".. c #467838",
"X. c #4C793C",
"o. c #343144",
"O. c #393645",
"+. c #3B5743",
"@. c #474541",
"#. c #4B4B46",
"$. c #474849",
"%. c #514D4D",
"&. c #4A5B44",
"*. c #53514E",
"=. c #58564E",
"-. c #545651",
";. c #5D5B55",
":. c #5C5C59",
">. c #4C6344",
",. c #4E6946",
"<. c #536A4C",
"1. c #4C7042",
"2. c #4E7942",
"3. c #517145",
"4. c #557F47",
"5. c #57754D",
"6. c #557D49",
"7. c #59784F",
"8. c #5C6457",
"9. c #5D7E54",
"0. c #606056",
"q. c #64635C",
"w. c #65695B",
"e. c #6B6B64",
"r. c #6E6D69",
"t. c #75746C",
"y. c #7D7B75",
"u. c #289706",
"i. c #279A06",
"p. c #2C9B07",
"a. c #299708",
"s. c #2E9C0B",
"d. c #309D07",
"f. c #339D0C",
"g. c #399F0E",
"h. c #388A11",
"j. c #379717",
"k. c #359C13",
"l. c #3C9819",
"z. c #3C9D1A",
"x. c #2CA106",
"c. c #2FA10B",
"v. c #31A107",
"b. c #34A20C",
"n. c #3AA30E",
"m. c #35A80D",
"M. c #3BA90E",
"N. c #37A316",
"B. c #3DA312",
"V. c #3FA913",
"C. c #3EA41B",
"Z. c #3EA91B",
"A. c #40A70F",
"S. c #42A813",
"D. c #42A61C",
"F. c #43A91C",
"G. c #49AB1E",
"H. c #449423",
"J. c #459C25",
"K. c #499E25",
"L. c #459629",
"P. c #4C932D",
"I. c #469B29",
"U. c #4A8433",
"Y. c #4A8B33",
"T. c #4E8A39",
"R. c #528B3A",
"E. c #4F9536",
"W. c #4E9B32",
"Q. c #519B36",
"!. c #53953C",
"~. c #549A3A",
"^. c #44A322",
"/. c #46A624",
"(. c #49A625",
"). c #4BAB27",
"_. c #4BA22C",
"`. c #4DAB29",
"'. c #4FAB31",
"]. c #53A434",
"[. c #59A93A",
"{. c #558C42",
"}. c #598848",
"|. c #5D9341",
" X c #5F9E4A",
".X c #5D8450",
"XX c #639E4D",
"oX c #638A51",
"OX c #659552",
"+X c #5CA241",
"@X c #64A94A",
"#X c #68B14A",
"$X c #66A354",
"%X c #6AA752",
"&X c #6CA656",
"*X c #71B258",
"=X c #96A17F",
"-X c #898783",
";X c #918F8B",
":X c #979795",
/* pixels */
"`.z.D.Z.C.Z.D.F.[.(.F.Z.D.C.z.C.D.G.D.Z.z.D.F.Z.D.F.F.C.G.D.k.).",
"p.p.v.b.p.v.s.p.+X(.v.f.u.d.m.p.u.d.d.f.v.p.p.d.p.p.f.i.d.v.b.d.",
"F.m.d.f.n.n.f.g.E.] oXf.N.m.n.b.n.b.g.b.M.b.B.b.b.f.b.M.b.f.v.F.",
"F.d.f.b.f.f.I.>.9.d : B 8.l.g.f.M.n.n.g.f.n.M.n.f.g.b.f.f.n.i.D.",
"C.d.f.f.f.s./ 0 {.} Y l.] M ~.p.f.n.B.f.f.B.b.B.f.b.f.s.p.f.f.D.",
"C.v.b.s.(.M H b._.OX|.n.p...n J.f.d.b.f.n.f.s.f.b.B.b.b.n.f.v.D.",
"C.s.M.M.[.d j.n.S.XX| b.f.g.] &XN.d.b.f.f.n.c.s.g.n.b.b.d.M.d.F.",
"D.p.f.n.&X=.K.~.$X` 4 Q.%XH.X.U g.f.f.b.f.b.b.B.s.f.n.f.b.m.b.Z.",
"Z.a.n.^.@.h   + k J b _ @ . > h ].b.n.B.f.f.b.b.b.s.f.f.s.b.s.F.",
"N.i.f.z.L @.E.Y.H.J y G h.H.<.l `.M.s.f.n.n.b.n.B.s.f.B.M.f.d.D.",
"C.v.b.b.T.T |.=X*X .* z.f.[.;.6.n.f.b.b.b.a.f.n.f.f.s.f.n.n.d.D.",
"D.d.f.].) n # , t k q ' 8 + n [ g.n.n.f.k.b.s.k.f.c.b.b.n.A.v.F.",
"D.v.b.~.7.m 9.@.! D A Z ( >.b K M.n.g.f.b.M.b.b.b.s.s.n.n.f.u.D.",
"D.b.f.f.}.H E.0 ^ ^ B B 0 ~.Q %  Xs.M.g.f.n.f.b.n.f.s.s.g.f.p.D.",
"D.s.d.J.<.H U.< 8 w t 8 1 &.> I &.Q.s.b.f.f.n.n.b.B.f.f.f.n.g.D.",
"G.d./.@X>.5 U.6 S Z Z A Z j o T >.@Xf.f.M.f.g.f.b.n.b.b.s.d.p.D.",
"D.d.W.U.@.8.U.6 S Z Z A < !.Q & P.s.B.b.s.n.b.b.s.s.c.b.n.b.v.D.",
"D.N.W.P.@.&X}.. Z S A V # 2.1.& F (.B.f.B.b.f.b.f.n.B.f.g.n.b.D.",
"D.C.D.T.3 ` +.2 C t V C < P q j ] {.f.s.M.d.b.d.f.m.b.f.g.n.i.F.",
"C.[.Y._ q.8.#.#.e w V w @.*.B w.) { M.n.n.k.A.n.s.b.b.f.n.n.i.Z.",
"C.J.W.4.i u =.:X-.7 1 B :Xr.s g ..| ^.n.n.g.b.B.k.s.v.M.n.b.d.D.",
"D.c.s.4.y = O t.y.:.q.-Xy.s y a L r W.f.M.n.s.n.n.a.f.N.f.b.f.z.",
"F.a.B.&.*.g % - q.r.;Xt.- o v 3 2 9 W f.f.s.g.b.n.n.m.s.v.b.d.D.",
"D.d.~.n ;.y u = - ;.e.& % p x 3 $ ` z.A.g.b.f.f.f.f.b.b.f.f.i.F.",
"C.v.C.n c p u u & > - & u : v B d E.[.B.n.n.s.b.b.b.b.n.f.N.p.C.",
"F.p.L.- z z - : u ; ; p ; & h $.n T.W.s.f.V.n.b.s.f.f.b.b.g.i.G.",
"D.W.~ $ e z a - : p u ; & g v y y h R.B.f.n.k.f.f.V.c.s.g.A.v.F.",
"F._.~ # d g v z u ; ; : g o.x @ o .X[ J.b.s.s.b.B.v.M.n.n.b.d.D.",
"C.d.X.l *.z x O.v - - o.o.z O.%.h ~.Y.E.b.s.b.f.f.f.f.m.d.b.d.D.",
"D.v.1.f N X y ; f 0.%.: o X f -.l }.{.W B.b.f.g.b.b.b.v.b.B.p.D.",
"n._.5.m &.,.E R 3. .6.] [ 5.&.I P }.W 3.[.s.v.b.x.d.u.p.i.s.f.v.",
"`.'.$X{.[.@XL.~.Q.L.W.L.+X#X$X{.~.+XW.{.+XD.D.D.D.D.D.F.F.F.S.`."
};
