/* XPM */
static char *result[] = {
/* columns rows colors chars-per-pixel */
"32 32 59 1 ",
"  c #000000",
". c #030801",
"X c #071601",
"o c #0A1704",
"O c #0A1804",
"+ c #0C2403",
"@ c #0D2803",
"# c #0F3102",
"$ c #103202",
"% c #143209",
"& c #165203",
"* c #195204",
"= c #1C5804",
"- c #23580F",
"; c #235910",
": c #1C6B04",
"> c #206A05",
", c #236409",
"< c #236B09",
"1 c #286E0A",
"2 c #237105",
"3 c #27710A",
"4 c #28710A",
"5 c #278306",
"6 c #2A8607",
"7 c #288906",
"8 c #2E870C",
"9 c #2D8A0B",
"0 c #30870C",
"q c #318A0C",
"w c #269605",
"e c #279806",
"r c #2C9B07",
"t c #2E9C0A",
"y c #309E07",
"u c #329D0B",
"i c #399E0F",
"p c #318417",
"a c #348917",
"s c #398C19",
"d c #369C14",
"f c #3A9E15",
"g c #3A9018",
"h c #3B9F1B",
"j c #2CA006",
"k c #30A107",
"l c #34A20B",
"z c #39A30E",
"x c #39A80E",
"c c #37A314",
"v c #37A219",
"b c #3EA41C",
"n c #3EA91B",
"m c #40A70F",
"M c #41A816",
"N c #42A61C",
"B c #43A91D",
"V c #4AAB1E",
"C c #4CAB29",
/* pixels */
"CfnbbbNBBbBbNNbbbVnbhNnnNNBNVNdC",
"trlljlrrulk5&#X. .X@=6ryrrtrjlkt",
"Bkluzzydz1+           +1luzzllkV",
"Vyuluul0@               @0lutzwN",
"byudut<.                 .<ttuuN",
"bjxtz,                     ,zulN",
"nrxx1                      .>xyN",
"byuq.                       .9lB",
"bei@                         @uN",
"vr<                           >N",
"bk+                           +N",
"N6                             g",
"N=                             ;",
"N$                             %",
"NX                             o",
"V.                             .",
"b                               ",
"N.                             .",
"NX                             O",
"n#                             %",
"b*                             ;",
"N7                             p",
"Nr+                           +N",
"Ny4                           :N",
"nud+                         @rb",
"Beuq.                       .8rV",
"Nrxu<                       ,mkV",
"Vryll,                     ,zlrb",
"buuxtu<.                 .<xlxyC",
"Nrzullt8@               +9ullzeb",
"lreuutktr:+           +2juwreyyl",
"CcbnVhbbBbba;%o. .o%-sbNbVNNBBMC"
};
