/* XPM */
static char *result[] = {
/* columns rows colors chars-per-pixel */
"32 32 132 2 ",
"   c #010201",
".  c #050E01",
"X  c #1C0000",
"o  c #091603",
"O  c #111211",
"+  c #1C1C1C",
"@  c #220000",
"#  c #0C2605",
"$  c #133F05",
"%  c #1B380E",
"&  c #1A3610",
"*  c #3C2016",
"=  c #21371A",
"-  c #252625",
";  c #2A2A2A",
":  c #293325",
">  c #2A3229",
",  c #2D3A28",
"<  c #333432",
"1  c #393C37",
"2  c #3B3B3B",
"3  c #711A19",
"4  c #7D1B18",
"5  c #4C3623",
"6  c #4B3431",
"7  c #1E5908",
"8  c #224914",
"9  c #254B19",
"0  c #236010",
"q  c #2E6A1C",
"w  c #2B7F11",
"e  c #30741D",
"r  c #2E4D23",
"t  c #355129",
"y  c #365D29",
"u  c #394B32",
"i  c #3A5331",
"p  c #376B23",
"a  c #3A7623",
"s  c #3E7D26",
"d  c #3C712B",
"f  c #416635",
"g  c #487D32",
"h  c #4E4E4E",
"j  c #555555",
"k  c #5E5F5E",
"l  c #52664A",
"z  c #4C734B",
"x  c #57764E",
"c  c #60605F",
"v  c #646464",
"b  c gray43",
"n  c #6E706F",
"m  c #737472",
"M  c gray47",
"N  c #9D1C18",
"B  c #A3221D",
"V  c #269605",
"C  c #289706",
"Z  c #279A06",
"A  c #2C9B07",
"S  c #2B970B",
"D  c #2E9C0B",
"F  c #309E07",
"G  c #339D0C",
"H  c #389F0E",
"J  c #2D8512",
"K  c #39861E",
"L  c #3D8B1C",
"P  c #369312",
"I  c #389516",
"U  c #359A13",
"Y  c #3C9D15",
"T  c #3A941E",
"R  c #3C9E1B",
"E  c #2CA106",
"W  c #2EA10C",
"Q  c #31A107",
"!  c #34A20C",
"~  c #3AA30E",
"^  c #35A80D",
"/  c #3AA90E",
"(  c #37A314",
")  c #3EA410",
"_  c #3FA810",
"`  c #37A219",
"'  c #3EA41B",
"]  c #3EA91B",
"[  c #378721",
"{  c #3E8C22",
"}  c #3D9121",
"|  c #44991D",
" . c #40A70F",
".. c #40AB0F",
"X. c #42A514",
"o. c #41A916",
"O. c #42A51C",
"+. c #43A91C",
"@. c #49AB1E",
"#. c #448A2D",
"$. c #48882F",
"%. c #419224",
"&. c #449B25",
"*. c #49942A",
"=. c #469E29",
"-. c #509B30",
";. c #48AC27",
":. c #4DAB29",
">. c #558157",
",. c #5C8251",
"<. c #798D72",
"1. c #7E8D8E",
"2. c #848483",
"3. c #969696",
"4. c #979A96",
"5. c #9D9D9D",
"6. c #90A48F",
"7. c #96A797",
"8. c #A3A3A3",
"9. c #A5A9A4",
"0. c #ABAAAB",
"q. c #A4B4B5",
"w. c #B4B4B4",
"e. c gray74",
"r. c #CDCDCC",
"t. c #D7D7D7",
"y. c #DADBDA",
"u. c #E3E3E3",
"i. c #E7E8E7",
"p. c #ECEBEC",
"a. c #F3F3F3",
"s. c #FFFFFF",
/* pixels */
":.Y O.] ' ' +.+.+.' +.] O.' R ` O.@.O.O.O.O.] ] O.O.+.O.O.O.U ;.",
"D A Q ! A Q F A F Q ! A V ! ^ A C F F F Q A A F A A F Z F ! ! F ",
"+.^ F G ( ) G U ( ~ S G ! ~ / ( ~ ~ G ~ ^ ! Y ~ ! G ~ / ! ! Q @.",
"+.F G ! F F ! H ) G G ) ~ ! F G / ~ ~ ~ H ! ..! F H ! G A ~ V O.",
"' A G G G A ( A ! } G R ~ ~ U S s -.) G G ) U / G ! G A D H F O.",
"` ! ! D ~ ) ! G # g | & u P / J o ; ! G U G D G ! ) ! ( ~ G ! O.",
"O.A / / ! ~ R u - I %.I = O L / ( 1 #.G ! ~ W G U ~ ! ! F / F O.",
"O.F G ~ ~ U i   f ! W F 8 ; k D G j l G ! G ! / D ! ! G ~ ^ Q ] ",
"] C ~ G ~ %.  < : P F T < h c J % 2 v *.G G G / ! D G D G ! A O.",
"` Z G G G i   ; + o 7 , v n -   O + + r / G ! ! ) D G ) ( ! A @.",
"R F ! ! G d     b 2.2 - + ; O ; v O   =.! S G ~ D D ! G ~ ~ F O.",
"+.F G / ) X.O   2 s.s.u.8.0.p.a.y.O p G U ! D G G ! G ! /  .Q +.",
"O.Q ! U G ~ $.    y.s.s.s.s.s.s.v   -.P ! / ! ( ! D ! ! H G C O.",
"O.! G A D A U   2 s.s.s.s.s.s.s.2.. t ! G ) D ! ) G D D H G A O.",
"O.A G ! G ! U 8 + a.8.2.e.a.m 8.3.. [ ! H G ~ H G ) F G G ~ F O.",
"@.F ! / ! G / s 3.r.4.  2.s.  j 0.x G G ! G ) F ! ( ( G F G F O.",
"O.F ! ! G ! ! } 5.i.i.c r.y.M 5.0.,._ ~ D ) ! ! W D ! G ~ W ! O.",
"O.F F U ) ~ / ~ 0 m s.s.p.3.s.i.$ I _ D ! G G ! G ! ) ! G ) Q O.",
"' D ! G ) ~ S D ! w w.s.t.5.s.<.D G G D ) ! ! G G ( ! G G / Z +.",
"O.Q G G / ! ! D G ! s 9.s.s.4.P ! ! ) / ~ ! ) ! D ! Q ! ~ ~ A O.",
"' F ! / G G G ~ D ~ R < 1.q.> O.G D G / ~ G ~ ) G A ! / ~ ! F +.",
"' Q G S ! ) U ~ W D 6.2.@ X n 7.U ! ~ G / ~ D ~ ) D D ~ G ! F R ",
"O.A U ~ ~ A ( ! S G z 6 B N 6 >.) G G G G D ~ G ! ~ ( D ! ! F O.",
"O.A / ~ ~ G ! G ! ! K * 4 3 5 } / G G X.H G G G G G ! W G G Z O.",
"] F G D G ! ~ / ! &.1 s & # a 1 } ! ! ! ) ~ D ! ( D ! H G ~ A ' ",
"+.Z G ) U D G G G R K G e q U { U G ! S D _ ~ G F ! ! G ! ~ A +.",
"O.D ! F ! ! G G ~ G ! L 9 t *.W ) G / ) G ~ ~ G G / ! W G  .Q O.",
"+.F G ~ ! ! D G ~ ~ G 9 { { y U ~ ! G G W ! S ! ) W ( ~ ~ ~ F O.",
"O.F G ~ D G U D ~ ! ! G G ! ! H G G G ! ! D ~ G D G ! Q G ~ A O.",
"O.A ~ F W ! D ! U A  .~ ! ! ! G ) / D G ~ ! ! G ! ! ! ! ! ~ A O.",
"~ C A F F A E D S Z F A F ! F A A F E F F A Q Q E F V A A A F ! ",
":.` ` O.;.' ' ] ] +.' O.O.O.O.' O.` ;.' O.O.O.O.' ;.O.+.+.+.o.:."
};
